<?xml version="1.0" encoding="utf-8"?>
<!-- Generator: Adobe Illustrator 23.0.1, SVG Export Plug-In . SVG Version: 6.00 Build 0)  -->
<svg version="1.1" xmlns="http://www.w3.org/2000/svg" xmlns:xlink="http://www.w3.org/1999/xlink" x="0px" y="0px"
	 viewBox="0 0 512 512" style="enable-background:new 0 0 512 512;" xml:space="preserve">
<g id="right-pillar">
	<path id="XMLID_14_" d="M198.06,367.01L198.06,367.01c0,0-38.35-37.09-127.38-13.97l0.01-0.03l-0.64,0.19
		c-0.55,0.14-1.08,0.26-1.63,0.41c-0.03,0.03-0.4,0.07-0.43,0.1L9,370.91v35.32c22.06,15.28,34.54,35.95,34.54,35.95l0.18-0.03
		c10.56,36.51,44.29,63.21,84.2,63.21c48.37,0,87.63-39.21,87.63-87.58C215.55,398.96,208.16,381.29,198.06,367.01z M24.04,395.7
		c-2.4,0-4.35-1.95-4.35-4.35c0-2.4,1.95-4.35,4.35-4.35s4.35,1.95,4.35,4.35C28.39,393.76,26.44,395.7,24.04,395.7z M24.04,381.66
		c-2.4,0-4.35-1.95-4.35-4.35c0-2.4,1.95-4.35,4.35-4.35s4.35,1.95,4.35,4.35C28.39,379.72,26.44,381.66,24.04,381.66z
		 M126.84,494.32c-42,0-76.05-31.43-76.05-70.2c0-14.53,0.5-32.59,8.69-43.79c13.66-18.69,41.1-26.41,67.36-26.41
		c25.1,0,49.16,8.44,63.01,25.74c9.33,11.66,13.04,28.86,13.04,44.46C202.89,462.89,168.84,494.32,126.84,494.32z"/>
</g>
<g id="left-pillar">
	<path id="XMLID_7_" d="M257.71,416.48c0,48.37,39.25,87.58,87.63,87.58c39.91,0,73.64-26.7,84.2-63.21l0.05,0.03
		c0,0,12.41-20.67,34.41-35.95v-35.32l-58.85-17.2c-0.03-0.03-0.34-0.07-0.37-0.1c-0.55-0.15-1.05-0.27-1.6-0.41l-0.63-0.19
		l0.02,0.03c-89.03-23.12-127.38,13.97-127.38,13.97l0,0C265.1,380,257.71,397.67,257.71,416.48z M444.87,390.08
		c0-2.4,1.95-4.35,4.35-4.35c2.4,0,4.35,1.95,4.35,4.35c0,2.4-1.95,4.35-4.35,4.35C446.81,394.42,444.87,392.48,444.87,390.08z
		 M444.87,376.04c0-2.4,1.95-4.35,4.35-4.35c2.4,0,4.35,1.95,4.35,4.35c0,2.4-1.95,4.35-4.35,4.35
		C446.81,380.38,444.87,378.44,444.87,376.04z M270.37,422.84c0-15.6,3.71-32.8,13.04-44.46c13.85-17.3,37.92-25.74,63.01-25.74
		c26.26,0,53.69,7.72,67.36,26.41c8.19,11.2,8.69,29.26,8.69,43.79c0,38.77-34.05,70.2-76.05,70.2S270.37,461.61,270.37,422.84z"/>
</g>
<g id="frame">
	<path id="XMLID_19_" d="M277.77,372.63L261.05,358h-23.4h-2.01h-24.07l-16.71,14.51l15.38,23.8c0,0-5.55-15.82,11.79-16.51
		c0.39-0.02,4.2-0.45,7.7-0.52l5.92-11.98l5.92,11.99c3.72-0.07,8.59,0.53,9.04,0.55c17.34,0.69,11.79,16.73,11.79,16.73
		L277.77,372.63z"/>
</g>
<g id="hair-1">
	<path id="XMLID_5_" d="M50.47,342.92l-31.49,11.66c0,0-51.31-191.24,92.12-257.71s160.92-9.33,222.73-92.12
		c0,0,50.14,34.98,15.16,80.46c0,0,50.14,4.66,82.79-57.14c0,0,58.31,48.98,17.49,116.61c0,0,36.15-13.99,46.64-41.98
		c0,0,64.14,183.08-169.09,131.77c0,0-107.28,13.99-165.59-16.33C161.25,218.14,71.46,221.64,50.47,342.92z"/>
</g>
<g id="hair-2">
	<path id="XMLID_1_" d="M383.4,267.34c0,0,34.1,34.77,34.1,70.2l34.1,10.7c0,0,14.04-43.46,8.02-92.93L383.4,267.34z"/>
</g>
</svg>
